<svg width="82" height="82" viewBox="0 0 82 82" fill="none" xmlns="http://www.w3.org/2000/svg">
<mask id="mask0_79_91" style="mask-type:alpha" maskUnits="userSpaceOnUse" x="0" y="0" width="82" height="82">
<rect y="82" width="82" height="82" rx="15.0547" transform="rotate(-90 0 82)" fill="url(#paint0_linear_79_91)"/>
</mask>
<g mask="url(#mask0_79_91)">
<path fill-rule="evenodd" clip-rule="evenodd" d="M24.1275 35.2311C23.7364 36.2935 23.402 37.2725 23.0915 38.1944C23.0366 38.3576 22.9816 38.5214 22.9266 38.6851C22.5998 39.6588 22.2728 40.633 21.9429 41.5049C21.8413 41.7732 21.7344 42.0468 21.6201 42.3237C22.1315 42.1045 22.5529 41.8541 22.9126 41.5702C23.8965 40.7937 24.526 39.6836 25.1948 37.9289C24.83 36.9483 24.4748 36.0446 24.1275 35.2311ZM17.8725 47.6171C19.066 46.6752 19.9283 45.5708 20.5897 44.437C21.9815 44.0879 23.0734 43.5966 23.9598 42.897C24.8582 42.1879 25.4971 41.3023 26.0293 40.2508C26.4585 41.4806 26.9059 42.8094 27.3646 44.172C28.4215 47.3109 29.5386 50.6289 30.632 53.328C31.4714 55.4003 32.4443 57.5009 33.5843 59.1526C34.4947 60.4717 36.5977 63.1294 40.0656 63.1294L40.0656 63.1292C43.5326 63.1285 45.6352 60.4714 46.5455 59.1525C46.9213 58.608 47.2789 58.0148 47.6196 57.3899C47.9199 57.5061 48.236 57.571 48.5682 57.571L48.5682 57.5708C49.9119 57.57 50.9898 56.5091 51.8394 55.2782C52.7302 53.9875 53.5752 52.2082 54.3869 50.2044C55.44 47.6049 56.4811 44.5102 57.5106 41.4501C57.6932 40.9071 57.8755 40.3652 58.0575 39.8274C59.9188 43.4074 62.3007 46.3104 66.1534 48.1668C68.7973 49.4407 71.8348 50.0773 75.2743 50.4271C77.2668 50.6298 79.4994 50.7451 82 50.8062L82 66.9453C82 75.2598 75.2598 82 66.9453 82L15.0547 82C6.74021 82 -2.94624e-07 75.2598 -6.58061e-07 66.9453L-1.36105e-06 50.8627C4.15756 50.8421 7.45223 50.7367 10.0477 50.4158C12.9796 50.0532 15.6768 49.35 17.8725 47.6171ZM82 41.3155C79.7714 41.2576 77.8745 41.1551 76.2344 40.9882C74.933 40.8559 73.8547 40.6881 72.9505 40.4908C72.5334 39.8265 72.1851 38.9865 71.8123 37.8932C71.619 37.3263 71.4184 36.6887 71.1966 35.9836L71.1963 35.9828C70.7313 34.5044 70.1731 32.7297 69.3932 30.69C68.4302 28.1713 67.4397 26.4895 66.3389 25.6676C65.7572 25.2332 65.1114 25.0147 64.4285 25.0856C63.7652 25.1544 63.1809 25.4847 62.6791 25.9234C62.5243 26.0587 62.372 26.2092 62.222 26.3733C61.6309 25.534 60.9543 24.7899 60.1689 24.2034C58.9611 23.3016 57.3609 22.6768 55.5236 22.8675C53.7962 23.0467 52.4838 23.8845 51.6104 24.6481C49.9838 26.0703 48.8201 28.1727 47.9743 29.9533C47.0583 31.8816 46.1971 34.1437 45.3904 36.42C44.7723 38.1641 44.1905 39.8956 43.6248 41.5795L43.6245 41.5802L43.6245 41.5802L43.6245 41.5803C43.2585 42.6697 42.8991 43.7393 42.541 44.7793C42.1113 43.5411 41.6828 42.267 41.2529 40.9887L41.2529 40.9886L41.2528 40.9884L41.2528 40.9884C40.6952 39.3303 40.1353 37.6653 39.5673 36.0627C38.7728 33.8208 37.9647 31.71 37.1365 29.9664C36.3208 28.2492 35.4381 26.7823 34.4559 25.9235C33.954 25.4848 33.3698 25.1545 32.7064 25.0857C32.0235 25.0148 31.3778 25.2334 30.7961 25.6677C30.548 25.853 30.3055 26.0819 30.0677 26.3542C29.6044 25.7306 29.0904 25.1475 28.5194 24.6482C27.646 23.8847 26.3336 23.0468 24.6062 22.8676C22.7689 22.677 21.1687 23.3018 19.9609 24.2035C17.897 25.7446 16.5854 28.3741 15.5976 30.9575C14.9886 32.5504 14.5065 33.9595 14.1 35.1666L13.9229 35.6934C13.5912 36.681 13.3303 37.4574 13.0694 38.1469C12.454 39.7731 12.1292 40.0634 11.9946 40.1696C11.8262 40.3025 11.1942 40.7141 8.8833 40.9999C6.86521 41.2495 4.06478 41.3534 -1.77578e-06 41.3748L-2.92627e-06 15.0547C-3.28971e-06 6.74021 6.74021 -2.94624e-07 15.0547 -6.58061e-07L66.9453 -2.92627e-06C75.2598 -3.28971e-06 82 6.74021 82 15.0547L82 41.3155ZM48.5667 55.8806L48.5667 55.8807C48.5126 55.8806 48.4551 55.8745 48.3942 55.8614C48.7861 55.0341 49.1532 54.1786 49.4978 53.3279C50.5911 50.629 51.7081 47.3114 52.7649 44.1728L52.7649 44.1726L52.7651 44.1722L52.7652 44.1719L52.7653 44.1716L52.7655 44.1708C53.3077 42.5606 53.8339 40.9975 54.333 39.5893C54.9145 37.9485 55.4706 36.475 56.008 35.2177C56.3352 36.0502 56.6681 36.8606 57.0152 37.6456C56.6353 38.7488 56.2582 39.8701 55.8821 40.9883L55.8821 40.9883C54.8652 44.0121 53.8561 47.0128 52.8203 49.5698C52.0206 51.5439 51.2311 53.1839 50.4483 54.318C49.6246 55.5115 48.9904 55.8806 48.5667 55.8806ZM64.5322 30.9574C64.1346 29.9175 63.6845 28.8702 63.1541 27.8894C63.3714 27.6093 63.584 27.3774 63.7917 27.1959C64.1324 26.898 64.401 26.7878 64.603 26.7668C64.7854 26.7479 65.0173 26.7903 65.3276 27.022C66.0109 27.5322 66.8621 28.8031 67.8144 31.2937C68.5782 33.2913 69.1022 34.959 69.5584 36.411L69.5586 36.4116L69.559 36.4131C69.7866 37.1373 69.9973 37.8078 70.2125 38.4388C70.378 38.9243 70.5463 39.386 70.7276 39.8228C70.5672 39.7567 70.4155 39.689 70.2717 39.6197C68.198 38.6205 66.7986 36.8848 64.5322 30.9574ZM41.6453 47.3118C40.9667 45.4401 40.2931 43.4379 39.6244 41.4501L39.6243 41.45C39.0709 39.805 38.5209 38.1701 37.9741 36.6273C37.1849 34.4003 36.3999 32.3551 35.6097 30.6916C34.8071 29.0018 34.0462 27.8106 33.3433 27.196C33.0026 26.8981 32.734 26.7879 32.532 26.767C32.3496 26.748 32.1177 26.7904 31.8074 27.0221C31.5722 27.1977 31.3171 27.4634 31.0449 27.8379C31.4664 28.5529 31.8339 29.2764 32.1555 29.9534C33.0715 31.8818 33.9327 34.1439 34.7394 36.4202C35.3576 38.1645 35.9394 39.8963 36.5053 41.5804L36.5053 41.5804C37.4914 44.5154 38.4289 47.3058 39.4255 49.7659C39.6479 50.315 39.8612 50.8153 40.0649 51.268C40.2686 50.8153 40.4819 50.3149 40.7043 49.7657C41.0228 48.9795 41.3353 48.1595 41.6453 47.3118Z" fill="white"/>
</g>
<defs>
<linearGradient id="paint0_linear_79_91" x1="41" y1="82" x2="41" y2="164" gradientUnits="userSpaceOnUse">
<stop stop-color="white"/>
<stop offset="1" stop-color="white"/>
</linearGradient>
</defs>
</svg>
