<svg width="82" height="82" viewBox="0 0 82 82" fill="none" xmlns="http://www.w3.org/2000/svg">
<mask id="mask0_79_104" style="mask-type:alpha" maskUnits="userSpaceOnUse" x="0" y="0" width="82" height="82">
<rect y="82" width="82" height="82" rx="15.0547" transform="rotate(-90 0 82)" fill="url(#paint0_linear_79_104)"/>
</mask>
<g mask="url(#mask0_79_104)">
<path fill-rule="evenodd" clip-rule="evenodd" d="M24.1301 35.2311C23.7391 36.2935 23.4046 37.2725 23.0942 38.1944C23.0392 38.3577 22.9843 38.5214 22.9293 38.6852C22.6025 39.6588 22.2755 40.633 21.9455 41.5049C21.8439 41.7733 21.737 42.047 21.6227 42.3239C22.1343 42.1047 22.5559 41.8542 22.9157 41.5703C23.8995 40.7938 24.529 39.6839 25.1977 37.9295C24.8328 36.9486 24.4776 36.0448 24.1301 35.2311ZM17.8751 47.6172C19.0686 46.6753 19.9309 45.5709 20.5923 44.4372C21.9843 44.0881 23.0764 43.5967 23.9629 42.8971C24.8612 42.1881 25.5 41.3026 26.0322 40.2513C26.4612 41.4809 26.9085 42.8093 27.3671 44.1715L27.3672 44.1718L27.3673 44.172C28.4241 47.3109 29.5412 50.6289 30.6347 53.3281C31.4741 55.4003 32.4469 57.5009 33.587 59.1526C34.4974 60.4717 36.6004 63.1294 40.0683 63.1294L40.0683 63.1293C43.5352 63.1284 45.6377 60.4714 46.548 59.1525C46.9238 58.608 47.2814 58.0147 47.6221 57.3898C47.9226 57.5061 48.2389 57.571 48.5713 57.571L48.5713 57.5709C49.915 57.5701 50.9929 56.5092 51.8425 55.2782C52.7334 53.9875 53.5783 52.2082 54.39 50.2044C55.4431 47.6049 56.4842 44.5103 57.5137 41.4501C57.6963 40.9074 57.8785 40.3658 58.0603 39.8282C59.9216 43.4079 62.3034 46.3106 66.1559 48.1668C68.7997 49.4408 71.8372 50.0773 75.2768 50.4272C77.2686 50.6298 79.5004 50.745 82 50.8062L82 66.9453C82 75.2598 75.2598 82 66.9453 82L15.0547 82C6.74021 82 -2.94624e-07 75.2598 -6.58061e-07 66.9453L-1.36105e-06 50.8628C4.15882 50.8422 7.45434 50.7368 10.0504 50.4158C12.9823 50.0532 15.6795 49.35 17.8751 47.6172ZM82 41.3155C79.7724 41.2575 77.8763 41.155 76.2369 40.9883C74.9358 40.8559 73.8578 40.6882 72.9537 40.491C72.5366 39.8266 72.1883 38.9866 71.8154 37.8933C71.622 37.3261 71.4213 36.6882 71.1995 35.9829C70.7344 34.5045 70.1762 32.7298 69.3963 30.69C68.4333 28.1714 67.4428 26.4896 66.342 25.6676C65.7603 25.2333 65.1145 25.0147 64.4316 25.0856C63.7683 25.1544 63.184 25.4847 62.6822 25.9234C62.5273 26.0589 62.3749 26.2094 62.2248 26.3737C61.6336 25.5343 60.9569 24.79 60.1713 24.2034C58.9636 23.3017 57.3634 22.6769 55.5261 22.8675C53.7987 23.0467 52.4862 23.8845 51.6129 24.6481C49.9863 26.0703 48.8226 28.1727 47.9768 29.9533C47.0608 31.8817 46.1996 34.1437 45.3929 36.42C44.7747 38.1643 44.1929 39.8959 43.6272 41.5798L43.627 41.5803C43.2611 42.6694 42.9018 43.7386 42.5438 44.7785C42.1141 43.5404 41.6857 42.2665 41.2559 40.9885L41.2559 40.9884L41.2559 40.9884L41.2559 40.9884L41.2559 40.9883C40.6983 39.3303 40.1384 37.6653 39.5704 36.0628C38.7759 33.8208 37.9678 31.71 37.1396 29.9664C36.3239 28.2492 35.4412 26.7824 34.459 25.9236C33.9572 25.4848 33.3729 25.1546 32.7095 25.0857C32.0266 25.0149 31.3809 25.2334 30.7992 25.6678C30.551 25.8531 30.3084 26.0821 30.0705 26.3545C29.6073 25.7308 29.0932 25.1476 28.5221 24.6483C27.6487 23.8847 26.3363 23.0469 24.6088 22.8676C22.7716 22.677 21.1713 23.3018 19.9636 24.2036C17.8997 25.7446 16.5881 28.3741 15.6003 30.9575C14.9912 32.5504 14.5092 33.9595 14.1027 35.1666L13.9256 35.6934C13.5938 36.681 13.333 37.4574 13.0721 38.1469C12.4567 39.7731 12.1319 40.0634 11.9973 40.1696C11.8289 40.3026 11.1969 40.7141 8.88597 40.9999C6.86744 41.2495 4.06622 41.3535 -1.77578e-06 41.3749L-2.92627e-06 15.0547C-3.28971e-06 6.74021 6.74021 -2.94624e-07 15.0547 -6.58061e-07L66.9453 -2.92627e-06C75.2598 -3.28971e-06 82 6.74021 82 15.0547L82 41.3155ZM48.5698 55.8806L48.5698 55.8807C48.5156 55.8806 48.4578 55.8745 48.3967 55.8613C48.7886 55.0341 49.1557 54.1786 49.5003 53.3279C50.5937 50.6288 51.7108 47.3109 52.7676 44.172L52.7676 44.1719C53.3099 42.5613 53.8363 40.9978 54.3355 39.5893C54.917 37.9485 55.4731 36.475 56.0105 35.2177C56.3377 36.0505 56.6709 36.8612 57.018 37.6464C56.6383 38.7492 56.2613 39.87 55.8855 40.9877L55.8852 40.9884C54.8683 44.0122 53.8592 47.0129 52.8234 49.5698C52.0237 51.5439 51.2342 53.1839 50.4514 54.3181C49.6277 55.5115 48.9935 55.8806 48.5698 55.8806ZM64.5347 30.9574C64.1371 29.9177 63.6872 28.8706 63.1568 27.8899C63.3742 27.6095 63.587 27.3775 63.7948 27.1959C64.1355 26.898 64.4041 26.7878 64.6061 26.7669C64.7885 26.7479 65.0204 26.7903 65.3307 27.022C66.014 27.5322 66.8652 28.8031 67.8175 31.2937C68.5813 33.2913 69.1052 34.9589 69.5614 36.4107L69.5615 36.411C69.7893 37.136 70.0002 37.8072 70.2156 38.4388C70.3812 38.9244 70.5495 39.3862 70.7308 39.8231C70.5702 39.7569 70.4183 39.6891 70.2742 39.6197C68.2005 38.6205 66.801 36.8848 64.5347 30.9574ZM41.6481 47.311C40.9696 45.4397 40.2962 43.4379 39.6276 41.4506L39.6275 41.4502L39.6274 41.4501C39.074 39.8052 38.524 38.1702 37.9772 36.6274C37.188 34.4003 36.403 32.3551 35.6128 30.6917C34.8102 29.0019 34.0493 27.8106 33.3464 27.1961C33.0057 26.8982 32.7371 26.788 32.5351 26.767C32.3527 26.7481 32.1208 26.7905 31.8105 27.0222C31.5752 27.1978 31.3201 27.4636 31.0478 27.8383C31.4692 28.5531 31.8366 29.2765 32.1582 29.9534C33.0741 31.8818 33.9354 34.1439 34.7421 36.4202C35.3603 38.1645 35.9421 39.8963 36.5079 41.5804C37.4941 44.5154 38.4316 47.3058 39.4281 49.7659C39.6505 50.3149 39.8638 50.8152 40.0674 51.2678C40.2711 50.8152 40.4844 50.3148 40.7068 49.7658C41.0254 48.9792 41.338 48.1589 41.6481 47.311Z" fill="#1E1E1E"/>
</g>
<defs>
<linearGradient id="paint0_linear_79_104" x1="41" y1="82" x2="41" y2="164" gradientUnits="userSpaceOnUse">
<stop stop-color="white"/>
<stop offset="1" stop-color="white"/>
</linearGradient>
</defs>
</svg>
