<svg width="94" height="126" viewBox="0 0 94 126" fill="none" xmlns="http://www.w3.org/2000/svg">
<path d="M14.5559 125.547L23.5307 99.1508H18.5531L11.8408 119.74H11.6899L4.97765 99.1508H0L8.93715 125.547H14.5559Z" fill="url(#paint0_linear_79_55)"/>
<path d="M28.9756 104.732C30.5594 104.732 31.8792 103.525 31.8792 101.866C31.8792 100.244 30.5594 99 28.9756 99C27.3541 99 26.0343 100.244 26.0343 101.866C26.0343 103.525 27.3541 104.732 28.9756 104.732ZM31.2382 125.547V107.485H26.713V125.547H31.2382Z" fill="url(#paint1_linear_79_55)"/>
<path d="M46.5043 107.032C44.0532 107.032 41.9792 108.126 41.0365 109.672H40.9233V99.1508H36.3982V125.547H40.5085L40.7348 123.247H40.8479C41.8284 124.906 44.0155 126 46.5043 126C51.1426 126 54.8004 122.191 54.8004 116.535C54.8004 110.841 51.1426 107.032 46.5043 107.032ZM45.4862 121.965C42.658 121.965 40.7725 119.929 40.7725 116.535C40.7725 113.103 42.658 111.067 45.4862 111.067C48.239 111.067 50.1999 113.103 50.1999 116.535C50.1999 119.929 48.239 121.965 45.4862 121.965Z" fill="url(#paint2_linear_79_55)"/>
<path d="M76.017 115.932C76.017 110.501 72.3592 107.032 67.3061 107.032C61.876 107.032 57.9165 110.954 57.9165 116.648C57.9165 122.191 61.7251 126 67.2684 126C71.3033 126 74.4709 123.964 75.6399 120.758L75.9039 119.74H72.6562H71.5296C70.7377 121.362 69.2293 122.191 67.3061 122.191C64.7419 122.191 62.781 120.683 62.4039 117.628H75.9039C75.9793 116.987 76.017 116.497 76.017 115.932ZM67.3061 110.765C69.4933 110.765 71.1148 111.934 71.5296 114.536H62.5547C63.1581 112.047 64.9681 110.765 67.3061 110.765Z" fill="url(#paint3_linear_79_55)"/>
<path d="M92.9 110.728V107.485H78.7589V111.444H87.0927L78.6081 122.342V125.547H93.1639V121.588H84.4531L92.9 110.728Z" fill="url(#paint4_linear_79_55)"/>
<rect x="5.27539" y="82" width="82" height="82" rx="15.0547" transform="rotate(-90 5.27539 82)" fill="url(#paint5_linear_79_55)"/>
<mask id="mask0_79_55" style="mask-type:alpha" maskUnits="userSpaceOnUse" x="5" y="0" width="83" height="82">
<rect x="5.27539" y="82" width="82" height="82" rx="15.0547" transform="rotate(-90 5.27539 82)" fill="url(#paint6_linear_79_55)"/>
</mask>
<g mask="url(#mask0_79_55)">
<circle cx="67.7363" cy="20.5" r="42.2812" transform="rotate(-90 67.7363 20.5)" fill="#D9D9D9" fill-opacity="0.1"/>
<circle cx="13.7637" cy="73.832" r="26.4258" transform="rotate(-90 13.7637 73.832)" fill="#D9D9D9" fill-opacity="0.08"/>
<g style="mix-blend-mode:hard-light">
<path d="M-0.167969 43.9289C19.8691 43.9288 25.4896 44.5514 30.084 32.5353C37.7453 12.4983 43.0492 58.2691 50.1211 58.2691" stroke="#00FF66" stroke-width="6.1194"/>
<path d="M99.624 43.9286C79.587 43.9286 74.7522 44.5511 70.1578 32.535C62.4965 12.498 57.1926 58.2689 50.1207 58.2689" stroke="#00FF66" stroke-width="6.1194"/>
</g>
<path d="M-2.17773 43.9289C17.8593 43.9288 21.5154 44.5514 26.1099 32.5353C33.7711 12.4983 39.075 58.2691 46.1469 58.2691" stroke="white" stroke-width="7.85767"/>
<path d="M98.4004 43.9286C78.3633 43.9286 70.7784 44.5511 66.184 32.535C58.5227 12.498 53.2188 58.2689 46.1469 58.2689" stroke="white" stroke-width="7.85767"/>
</g>
<defs>
<linearGradient id="paint0_linear_79_55" x1="-2.41072" y1="88.875" x2="98.8393" y2="128.893" gradientUnits="userSpaceOnUse">
<stop stop-color="#A260F4"/>
<stop offset="1" stop-color="#00FFC2"/>
</linearGradient>
<linearGradient id="paint1_linear_79_55" x1="-2.41072" y1="88.875" x2="98.8393" y2="128.893" gradientUnits="userSpaceOnUse">
<stop stop-color="#A260F4"/>
<stop offset="1" stop-color="#00FFC2"/>
</linearGradient>
<linearGradient id="paint2_linear_79_55" x1="-2.41072" y1="88.875" x2="98.8393" y2="128.893" gradientUnits="userSpaceOnUse">
<stop stop-color="#A260F4"/>
<stop offset="1" stop-color="#00FFC2"/>
</linearGradient>
<linearGradient id="paint3_linear_79_55" x1="-2.41072" y1="88.875" x2="98.8393" y2="128.893" gradientUnits="userSpaceOnUse">
<stop stop-color="#A260F4"/>
<stop offset="1" stop-color="#00FFC2"/>
</linearGradient>
<linearGradient id="paint4_linear_79_55" x1="-2.41072" y1="88.875" x2="98.8393" y2="128.893" gradientUnits="userSpaceOnUse">
<stop stop-color="#A260F4"/>
<stop offset="1" stop-color="#00FFC2"/>
</linearGradient>
<linearGradient id="paint5_linear_79_55" x1="46.2754" y1="82" x2="46.2754" y2="164" gradientUnits="userSpaceOnUse">
<stop offset="0.229167" stop-color="#A260F4"/>
<stop offset="1" stop-color="#6F8CF4"/>
</linearGradient>
<linearGradient id="paint6_linear_79_55" x1="46.2754" y1="82" x2="46.2754" y2="164" gradientUnits="userSpaceOnUse">
<stop stop-color="#A260F4"/>
<stop offset="1" stop-color="#3957C1"/>
</linearGradient>
</defs>
</svg>
